<svg xmlns="http://www.w3.org/2000/svg" version="1.1" xmlns:xlink="http://www.w3.org/1999/xlink" xmlns:svgjs="http://svgjs.dev/svgjs" width="1000" height="1000" viewBox="0 0 1000 1000"><rect width="1000" height="1000" fill="#000000"></rect><g transform="matrix(0.7,0,0,0.7,149.39722222222207,156.38037340425547)"><svg viewBox="0 0 144 141" data-background-color="#ffffff" preserveAspectRatio="xMidYMid meet" height="979" width="1000" xmlns="http://www.w3.org/2000/svg" xmlns:xlink="http://www.w3.org/1999/xlink"><g id="tight-bounds" transform="matrix(1,0,0,1,0.12400000000002365,0.19949999999997203)"><svg viewBox="0 0 143.75169010778447 140.60052000000002" height="140.60052000000002" width="143.75169010778447"><g><svg viewBox="0 0 143.75169010778447 140.60052000000002" height="140.60052000000002" width="143.75169010778447"><g><svg viewBox="0 0 143.75169010778447 140.60052000000002" height="140.60052000000002" width="143.75169010778447"><g><path d="M0 140.601v-140.601h143.752v140.601z" fill="#ffffff" stroke="transparent" stroke-width="0" rx="0%" data-fill-palette-color="tertiary"></path><path d="M3.283 137.317v-134.034h137.185v134.034z" fill="#000000" stroke="transparent" stroke-width="0" rx="0%" data-fill-palette-color="quaternary"></path><path d="M9.85 130.751v-120.901h124.052v120.901z" fill="#ffffff" stroke="transparent" stroke-width="0" data-fill-palette-color="tertiary"></path></g><g transform="matrix(1,0,0,1,19.69974,19.69974)" id="textblocktransform"><svg viewBox="0 0 104.35221010778447 101.20104000000002" height="101.20104000000002" width="104.35221010778447" id="textblock"><g><svg viewBox="0 0 104.35221010778447 101.20104000000002" height="101.20104000000002" width="104.35221010778447"><g transform="matrix(1,0,0,1,0,0)"><svg width="104.35221010778447" viewBox="2.45 -38.7 43.05 41.75000000000001" height="101.20104000000002" data-palette-color="#ffffff"><path d="M26.9-1.2L26.9-1.2Q21.35 3.05 15.65 3.05L15.65 3.05Q9.65 3.05 6.9-1.4L6.9-1.4Q4.95-4.65 4.95-8.63 4.95-12.6 6.4-16.55L6.4-16.55Q2.9-18.9 2.55-22.85L2.55-22.85Q2.45-23.6 2.45-24.35L2.45-24.35Q2.45-30.35 7.6-34.4L7.6-34.4Q13.1-38.7 20.6-38.7 28.1-38.7 33.02-34.52 37.95-30.35 37.95-22.6L37.95-22.6Q37.95-22.1 37.95-21.6L37.95-21.6Q42.95-24.9 44.45-27.9L44.45-27.9Q44.7-28.45 45.1-28.38 45.5-28.3 45.5-28.05 45.5-27.8 45.2-27.35L45.2-27.35Q42.25-22.7 37.75-19.85L37.75-19.85Q37.55-17.5 36.48-14.2 35.4-10.9 32.85-7.38 30.3-3.85 26.9-1.2ZM35-22.65L35-22.65Q35-31.1 29.6-35.15L29.6-35.15Q26-37.85 21.2-37.85L21.2-37.85Q19.8-37.85 18.35-37.6L18.35-37.6Q12.25-36.7 8.4-32.55L8.4-32.55Q5.15-28.95 5.15-24.4L5.15-24.4Q5.15-20.45 7.3-18.6L7.3-18.6Q9.25-22.75 13.05-27L13.05-27Q17.2-31.65 21.8-32.7L21.8-32.7Q22.55-32.85 23.73-32.85 24.9-32.85 26.45-31.9L26.45-31.9Q26.8-31.7 26.83-31.5 26.85-31.3 26.6-31.2 26.35-31.1 25.85-31.28 25.35-31.45 24.18-31.45 23-31.45 20.8-30.25 18.6-29.05 16.35-26.5L16.35-26.5Q11.9-21.45 9.85-16.9L9.85-16.9Q13-15.45 17.4-15.45L17.4-15.45Q19.35-15.45 21.55-15.7L21.55-15.7Q28.7-16.65 34.9-20L34.9-20Q35-21.35 35-22.65ZM34.6-18.25L34.6-18.25Q26.25-13.8 17-13.8L17-13.8Q12.5-13.8 9.1-15.15L9.1-15.15Q7.55-11.1 7.55-8.15L7.55-8.15Q7.55-1.25 11.7 0.8L11.7 0.8Q13.95 1.85 16.18 1.85 18.4 1.85 20.5 0.9L20.5 0.9Q24.9-1.1 28.4-5.35 31.9-9.6 33.7-14.7L33.7-14.7Q34.4-16.7 34.6-18.25Z" opacity="1" transform="matrix(1,0,0,1,0,0)" fill="#000000" class="wordmark-text-0" data-fill-palette-color="quaternary" id="text-0"></path></svg></g></svg></g></svg></g></svg></g><g></g></svg></g><defs></defs></svg><rect width="143.75169010778447" height="140.60052000000002" fill="none" stroke="none" visibility="hidden"></rect></g></svg></g></svg>